<?xml version="1.0" encoding="UTF-8" standalone="no"?>
<!DOCTYPE svg PUBLIC "-//W3C//DTD SVG 1.1//EN" "http://www.w3.org/Graphics/SVG/1.1/DTD/svg11.dtd">
<svg width="100%" height="100%" viewBox="0 0 1080 1080" version="1.1" xmlns="http://www.w3.org/2000/svg" xmlns:xlink="http://www.w3.org/1999/xlink" xml:space="preserve" xmlns:serif="http://www.serif.com/" style="fill-rule:evenodd;clip-rule:evenodd;stroke-linejoin:round;stroke-miterlimit:2;">
    <g id="_48f61056ef" serif:id="48f61056ef" transform="matrix(1.33333,0,0,1.33333,0,4.66667e-06)">
        <path d="M81.137,694.207C161.266,499.922 237.148,306.445 323.84,114.594C328.52,123.375 582.695,689.16 584.434,693.961C562.164,693.961 541.309,694.016 520.461,693.93C515.129,693.902 513.695,689.613 511.938,685.598C504.504,668.586 362.191,346.711 331.266,277.988C330.336,275.922 327.992,273.238 326.387,273.25C324.781,273.262 322.504,275.984 321.629,278.059C292.84,346.426 173.91,633.559 153.641,683.441C149.379,693.938 149.516,694.121 138.414,694.188C120.328,694.293 102.242,694.215 81.129,694.215L81.137,694.207Z" style="fill:url(#_Linear1);fill-rule:nonzero;"/>
        <path d="M727.688,177.801C727.973,216.961 686.168,237.625 661.332,227.367C656.504,225.371 651.547,223.645 646.844,221.383C636.457,216.379 635.516,216.426 627.211,224.207C615.539,235.145 609.648,248.699 608.09,264.539C607.031,275.297 608.965,275.93 598.344,276.129L566.563,276.035L551.539,276.129C544.848,276.289 542.57,273.988 542.23,267.09C541.098,245.031 547.082,224.473 556.074,205.059C577.203,159.434 608.938,135.215 658.332,126.773C681.594,122.793 714.539,136.781 723.508,158.473C728.148,169.695 727.707,177.816 727.707,177.816L727.688,177.801Z" style="fill:url(#_Linear2);fill-rule:nonzero;"/>
        <path d="M604.637,315.203L696.125,315.203C699.465,315.203 702.789,315.34 706.129,315.34C711.148,315.34 714.258,317.141 714.223,322.805C714.125,339.484 714.145,356.16 714.246,372.836C714.285,378.324 711.082,380.605 706.336,381.023C701.141,381.48 695.883,381.5 690.652,381.5C635.879,381.5 581.102,381.465 526.332,381.395C518.246,381.387 510.145,381.063 502.051,381.109C497.137,381.133 495.418,378.859 495.445,374.098C495.559,357.422 495.617,340.738 495.305,324.074C495.176,317.266 497.879,314.813 504.578,314.91C524.578,315.188 544.602,315.082 564.613,315.109C577.953,315.121 591.293,315.109 604.637,315.109L604.637,315.203Z" style="fill:url(#_Linear3);fill-rule:nonzero;"/>
        <path d="M263.535,522.227C260.531,522.223 256.836,516.75 257.98,514.078C265.449,496.676 272.258,480.891 278.941,465.047C281.043,460.047 284.328,457.938 289.887,457.984C312.703,458.137 335.527,458.023 358.355,457.848C363.719,457.801 367.125,459.723 369.391,464.789C376.594,480.824 384.277,496.633 391.477,512.664C393.172,516.438 389.73,522.133 385.547,522.145C345.621,522.301 305.703,522.234 263.535,522.227Z" style="fill:url(#_Linear4);fill-rule:nonzero;"/>
        <path d="M542.25,423.723C542.25,420.891 544.547,418.594 547.375,418.594L602.773,418.594C604.133,418.594 605.438,419.137 606.398,420.098C607.359,421.059 607.898,422.359 607.898,423.723L607.898,590.855C607.898,592.609 606.863,594.203 605.258,594.914C603.652,595.625 601.781,595.324 600.48,594.145C586.637,581.598 557.293,555.008 546.418,545.152C543.766,542.746 542.25,539.332 542.25,535.754L542.25,423.723Z" style="fill:url(#_Linear5);"/>
        <path d="M796.078,157.012L796.078,651.824C796.078,731.441 731.441,796.078 651.828,796.078L157.008,796.078C77.395,796.078 12.758,731.441 12.758,651.824L12.758,157.012C12.758,77.395 77.395,12.758 157.008,12.758L651.828,12.758C731.441,12.758 796.078,77.395 796.078,157.012ZM770.559,157.012C770.559,91.48 717.355,38.277 651.828,38.277L157.008,38.277C91.48,38.277 38.277,91.48 38.277,157.012L38.277,651.824C38.277,717.355 91.48,770.559 157.008,770.559L651.828,770.559C717.355,770.559 770.559,717.355 770.559,651.824L770.559,157.012Z" style="fill:url(#_Linear6);"/>
    </g>
    <defs>
        <linearGradient id="_Linear1" x1="0" y1="0" x2="1" y2="0" gradientUnits="userSpaceOnUse" gradientTransform="matrix(783.32,0,0,783.32,12.7578,404.418)"><stop offset="0" style="stop-color:rgb(26,79,170);stop-opacity:1"/><stop offset="0.5" style="stop-color:rgb(19,44,124);stop-opacity:1"/><stop offset="1" style="stop-color:rgb(3,34,74);stop-opacity:1"/></linearGradient>
        <linearGradient id="_Linear2" x1="0" y1="0" x2="1" y2="0" gradientUnits="userSpaceOnUse" gradientTransform="matrix(783.32,0,0,783.32,12.7578,404.418)"><stop offset="0" style="stop-color:rgb(26,79,170);stop-opacity:1"/><stop offset="0.5" style="stop-color:rgb(19,44,124);stop-opacity:1"/><stop offset="1" style="stop-color:rgb(3,34,74);stop-opacity:1"/></linearGradient>
        <linearGradient id="_Linear3" x1="0" y1="0" x2="1" y2="0" gradientUnits="userSpaceOnUse" gradientTransform="matrix(783.32,0,0,783.32,12.7578,404.418)"><stop offset="0" style="stop-color:rgb(26,79,170);stop-opacity:1"/><stop offset="0.5" style="stop-color:rgb(19,44,124);stop-opacity:1"/><stop offset="1" style="stop-color:rgb(3,34,74);stop-opacity:1"/></linearGradient>
        <linearGradient id="_Linear4" x1="0" y1="0" x2="1" y2="0" gradientUnits="userSpaceOnUse" gradientTransform="matrix(783.32,0,0,783.32,12.7578,404.418)"><stop offset="0" style="stop-color:rgb(26,79,170);stop-opacity:1"/><stop offset="0.5" style="stop-color:rgb(19,44,124);stop-opacity:1"/><stop offset="1" style="stop-color:rgb(3,34,74);stop-opacity:1"/></linearGradient>
        <linearGradient id="_Linear5" x1="0" y1="0" x2="1" y2="0" gradientUnits="userSpaceOnUse" gradientTransform="matrix(783.32,0,0,783.32,12.7578,404.418)"><stop offset="0" style="stop-color:rgb(26,79,170);stop-opacity:1"/><stop offset="0.5" style="stop-color:rgb(19,44,124);stop-opacity:1"/><stop offset="1" style="stop-color:rgb(3,34,74);stop-opacity:1"/></linearGradient>
        <linearGradient id="_Linear6" x1="0" y1="0" x2="1" y2="0" gradientUnits="userSpaceOnUse" gradientTransform="matrix(783.32,0,0,783.32,12.7578,404.418)"><stop offset="0" style="stop-color:rgb(26,79,170);stop-opacity:1"/><stop offset="0.5" style="stop-color:rgb(19,44,124);stop-opacity:1"/><stop offset="1" style="stop-color:rgb(3,34,74);stop-opacity:1"/></linearGradient>
    </defs>
</svg>
