<svg xmlns="http://www.w3.org/2000/svg" xmlns:xlink="http://www.w3.org/1999/xlink" width="1080" zoomAndPan="magnify" viewBox="0 0 810 809.999993" height="1080" preserveAspectRatio="xMidYMid meet" version="1.2"><g id="48f61056ef"><path style=" stroke:none;fill-rule:nonzero;fill:#ffffff;fill-opacity:1;" d="M 81.136719 694.207031 C 161.265625 499.921875 237.148438 306.445312 323.839844 114.59375 C 328.519531 123.375 582.695312 689.160156 584.433594 693.960938 C 562.164062 693.960938 541.308594 694.015625 520.460938 693.929688 C 515.128906 693.902344 513.695312 689.613281 511.9375 685.597656 C 504.503906 668.585938 362.191406 346.710938 331.265625 277.988281 C 330.335938 275.921875 327.992188 273.238281 326.386719 273.25 C 324.78125 273.261719 322.503906 275.984375 321.628906 278.058594 C 292.839844 346.425781 173.910156 633.558594 153.640625 683.441406 C 149.378906 693.9375 149.515625 694.121094 138.414062 694.1875 C 120.328125 694.292969 102.242188 694.214844 81.128906 694.214844 Z M 81.136719 694.207031 "/><path style=" stroke:none;fill-rule:nonzero;fill:#ffffff;fill-opacity:1;" d="M 727.6875 177.800781 C 727.972656 216.960938 686.167969 237.625 661.332031 227.367188 C 656.503906 225.371094 651.546875 223.644531 646.84375 221.382812 C 636.457031 216.378906 635.515625 216.425781 627.210938 224.207031 C 615.539062 235.144531 609.648438 248.699219 608.089844 264.539062 C 607.03125 275.296875 608.964844 275.929688 598.34375 276.128906 L 566.5625 276.035156 L 551.539062 276.128906 C 544.847656 276.289062 542.570312 273.988281 542.230469 267.089844 C 541.097656 245.03125 547.082031 224.472656 556.074219 205.058594 C 577.203125 159.433594 608.9375 135.214844 658.332031 126.773438 C 681.59375 122.792969 714.539062 136.78125 723.507812 158.472656 C 728.148438 169.695312 727.707031 177.816406 727.707031 177.816406 Z M 727.6875 177.800781 "/><path style=" stroke:none;fill-rule:nonzero;fill:#ffffff;fill-opacity:1;" d="M 604.636719 315.203125 L 696.125 315.203125 C 699.464844 315.203125 702.789062 315.339844 706.128906 315.339844 C 711.148438 315.339844 714.257812 317.140625 714.222656 322.804688 C 714.125 339.484375 714.144531 356.160156 714.246094 372.835938 C 714.285156 378.324219 711.082031 380.605469 706.335938 381.023438 C 701.140625 381.480469 695.882812 381.5 690.652344 381.5 C 635.878906 381.5 581.101562 381.464844 526.332031 381.394531 C 518.246094 381.386719 510.144531 381.0625 502.050781 381.109375 C 497.136719 381.132812 495.417969 378.859375 495.445312 374.097656 C 495.558594 357.421875 495.617188 340.738281 495.304688 324.074219 C 495.175781 317.265625 497.878906 314.8125 504.578125 314.910156 C 524.578125 315.1875 544.601562 315.082031 564.613281 315.109375 C 577.953125 315.121094 591.292969 315.109375 604.636719 315.109375 Z M 604.636719 315.203125 "/><path style=" stroke:none;fill-rule:nonzero;fill:#ffffff;fill-opacity:1;" d="M 263.535156 522.226562 C 260.53125 522.222656 256.835938 516.75 257.980469 514.078125 C 265.449219 496.675781 272.257812 480.890625 278.941406 465.046875 C 281.042969 460.046875 284.328125 457.9375 289.886719 457.984375 C 312.703125 458.136719 335.527344 458.023438 358.355469 457.847656 C 363.71875 457.800781 367.125 459.722656 369.390625 464.789062 C 376.59375 480.824219 384.277344 496.632812 391.476562 512.664062 C 393.171875 516.4375 389.730469 522.132812 385.546875 522.144531 C 345.621094 522.300781 305.703125 522.234375 263.535156 522.226562 Z M 263.535156 522.226562 "/><path style=" stroke:none;fill-rule:evenodd;fill:#ffffff;fill-opacity:1;" d="M 542.25 423.722656 C 542.25 420.890625 544.546875 418.59375 547.375 418.59375 C 559.632812 418.59375 590.515625 418.59375 602.773438 418.59375 C 604.132812 418.59375 605.4375 419.136719 606.398438 420.097656 C 607.359375 421.058594 607.898438 422.359375 607.898438 423.722656 C 607.898438 448.625 607.898438 557.164062 607.898438 590.855469 C 607.898438 592.609375 606.863281 594.203125 605.257812 594.914062 C 603.652344 595.625 601.78125 595.324219 600.480469 594.144531 C 586.636719 581.597656 557.292969 555.007812 546.417969 545.152344 C 543.765625 542.746094 542.25 539.332031 542.25 535.753906 C 542.25 515.089844 542.25 443.542969 542.25 423.722656 Z M 542.25 423.722656 "/><path style=" stroke:none;fill-rule:evenodd;fill:#ffffff;fill-opacity:1;" d="M 796.078125 157.011719 L 796.078125 651.824219 C 796.078125 731.441406 731.441406 796.078125 651.828125 796.078125 L 157.007812 796.078125 C 77.394531 796.078125 12.757812 731.441406 12.757812 651.824219 L 12.757812 157.011719 C 12.757812 77.394531 77.394531 12.757812 157.007812 12.757812 L 651.828125 12.757812 C 731.441406 12.757812 796.078125 77.394531 796.078125 157.011719 Z M 770.558594 157.011719 C 770.558594 91.480469 717.355469 38.277344 651.828125 38.277344 L 157.007812 38.277344 C 91.480469 38.277344 38.277344 91.480469 38.277344 157.011719 L 38.277344 651.824219 C 38.277344 717.355469 91.480469 770.558594 157.007812 770.558594 L 651.828125 770.558594 C 717.355469 770.558594 770.558594 717.355469 770.558594 651.824219 Z M 770.558594 157.011719 "/></g></svg>